<svg width="967" height="604" viewBox="0 0 967 604" xmlns="http://www.w3.org/2000/svg" >
<path fill-rule="evenodd" clip-rule="evenodd" d="M241.633 130.751L289.485 326.064L355.891 130.751H434.016L497.49 322.16L541.438 130.751L653.14 130.754L700.129 130.752C755.956 130.752 793.716 147.028 813.41 179.58C828.384 198.623 835.871 221.735 835.871 248.916V254.775C835.871 311.579 804.947 349.339 743.098 368.056C726.008 371.963 707.453 373.916 687.434 373.916H573.846L541.438 472.548H449.641L392.024 279.189L333.43 472.548H243.586L131.281 130.751H241.633ZM734.309 282.119C729.752 289.28 712.173 292.861 681.574 292.861H638.647H600.088L628.027 210.83H684.504C722.916 210.83 742.121 225.804 742.121 255.752C742.121 265.192 739.517 273.981 734.309 282.119Z" fill="white"/>
<style>
  path {
    fill: #000;
  }
  @media (prefers-color-scheme: dark) {
    path {
      fill: #fff;
    }
  }
</style>
</svg>
